<?xml version="1.0" encoding="UTF-8" standalone="no"?>
<!-- Created with Inkscape (http://www.inkscape.org/) -->

<svg
   xmlns:dc="http://purl.org/dc/elements/1.1/"
   xmlns:cc="http://creativecommons.org/ns#"
   xmlns:rdf="http://www.w3.org/1999/02/22-rdf-syntax-ns#"
   xmlns:svg="http://www.w3.org/2000/svg"
   xmlns="http://www.w3.org/2000/svg"
   xmlns:sodipodi="http://sodipodi.sourceforge.net/DTD/sodipodi-0.dtd"
   xmlns:inkscape="http://www.inkscape.org/namespaces/inkscape"
   width="80"
   height="40"
   id="svg12303"
   version="1.1"
   inkscape:version="0.48.4 r9939"
   sodipodi:docname="pre_mfeb.svg">
  <defs
     id="defs12305" />
  <sodipodi:namedview
     id="base"
     pagecolor="#ffffff"
     bordercolor="#666666"
     borderopacity="1.0"
     inkscape:pageopacity="0.0"
     inkscape:pageshadow="2"
     inkscape:zoom="5.6"
     inkscape:cx="58.884911"
     inkscape:cy="12.893404"
     inkscape:document-units="px"
     inkscape:current-layer="g3008"
     showgrid="true"
     inkscape:object-nodes="true"
     inkscape:window-width="707"
     inkscape:window-height="794"
     inkscape:window-x="856"
     inkscape:window-y="9"
     inkscape:window-maximized="0">
    <inkscape:grid
       type="xygrid"
       id="grid12311"
       units="px"
       empspacing="4"
       visible="true"
       enabled="true"
       snapvisiblegridlinesonly="true"
       spacingx="2px"
       spacingy="2px" />
  </sodipodi:namedview>
  <metadata
     id="metadata12308">
    <rdf:RDF>
      <cc:Work
         rdf:about="">
        <dc:format>image/svg+xml</dc:format>
        <dc:type
           rdf:resource="http://purl.org/dc/dcmitype/StillImage" />
        <dc:title />
      </cc:Work>
    </rdf:RDF>
  </metadata>
  <g
     inkscape:label="Layer 1"
     inkscape:groupmode="layer"
     id="layer1"
     transform="translate(0,-1012.3622)">
    <g
       id="g3008"
       transform="translate(-0.007874,1012.3622)">
      <path
         id="path3010"
         d="m 0,0 23.988189,0 0,40.003937 -23.988189,0 z"
         style="fill:#000000;fill-opacity:1;fill-rule:evenodd;stroke:none"
         inkscape:connector-curvature="0" />
      <path
         id="path3012"
         d="M 4.5,20.019685 6.6259842,18 l 10.9842518,0 1.877953,2.019685 -2.125984,1.984252 -10.9842523,0 z"
         style="fill:#00ff00;fill-opacity:1;fill-rule:evenodd;stroke:none"
         inkscape:connector-curvature="0" />
      <path
         id="path3014"
         d="m 5.5629921,3.011811 2.1259842,-2.01968502 10.9842517,0 1.877953,2.01968502 -2.125984,1.984252 -10.9842522,0 z"
         style="fill:#00ff00;fill-opacity:1;fill-rule:evenodd;stroke:none"
         inkscape:connector-curvature="0" />
      <path
         id="path3016"
         d="M 6.9094488,5.492126 5.031496,3.507874 2.9055118,5.492126 2.1614173,17.503937 4.0393701,19.488189 6.1653543,17.503937 z"
         style="fill:#00ff00;fill-opacity:1;fill-rule:evenodd;stroke:none"
         inkscape:connector-curvature="0" />
      <path
         id="path3018"
         d="M 5.8464567,22.5 3.9685039,20.515748 1.8425197,22.5 1.0984252,34.511811 2.9763779,36.496063 5.1023622,34.511811 z"
         style="fill:#00ff00;fill-opacity:1;fill-rule:evenodd;stroke:none"
         inkscape:connector-curvature="0" />
      <path
         id="path3020"
         d="m 27.992126,0 24.023622,0 0,40.003937 -24.023622,0 z"
         style="fill:#000000;fill-opacity:1;fill-rule:evenodd;stroke:none"
         inkscape:connector-curvature="0" />
      <path
         id="path3022"
         d="m 31.429134,36.992126 2.125984,-1.984252 11.019685,0 1.877953,1.984252 -2.125985,2.019685 -11.019685,0 z"
         style="fill:#00ff00;fill-opacity:1;fill-rule:evenodd;stroke:none"
         inkscape:connector-curvature="0" />
      <path
         id="path3024"
         d="M 32.492126,20.019685 34.61811,18 l 11.019685,0 1.877953,2.019685 -2.125984,1.984252 -11.019685,0 z"
         style="fill:#00ff00;fill-opacity:1;fill-rule:evenodd;stroke:none"
         inkscape:connector-curvature="0" />
      <path
         id="path3026"
         d="m 33.555118,3.011811 2.125984,-2.01968502 11.019685,0 1.84252,2.01968502 -2.090551,1.984252 -11.019685,0 z"
         style="fill:#00ff00;fill-opacity:1;fill-rule:evenodd;stroke:none"
         inkscape:connector-curvature="0" />
      <path
         id="path3028"
         d="m 34.901575,5.492126 -1.877953,-1.984252 -2.125984,1.984252 -0.744095,12.011811 1.877953,1.984252 2.125984,-1.984252 z"
         style="fill:#00ff00;fill-opacity:1;fill-rule:evenodd;stroke:none"
         inkscape:connector-curvature="0" />
      <path
         id="path3030"
         d="M 33.838582,22.5 31.96063,20.515748 29.834645,22.5 l -0.744094,12.011811 1.877953,1.984252 2.125984,-1.984252 z"
         style="fill:#00ff00;fill-opacity:1;fill-rule:evenodd;stroke:none"
         inkscape:connector-curvature="0" />
      <path
         id="path3032"
         d="m 55.984252,0 24.023622,0 0,40.003937 -24.023622,0 z"
         style="fill:#000000;fill-opacity:1;fill-rule:evenodd;stroke:none"
         inkscape:connector-curvature="0" />
      <path
         id="path3034"
         d="m 59.456693,36.992126 2.090551,-1.984252 11.019685,0 1.877952,1.984252 -2.125984,2.019685 -11.019685,0 z"
         style="fill:#00ff00;fill-opacity:1;fill-rule:evenodd;stroke:none"
         inkscape:connector-curvature="0" />
      <path
         id="path3036"
         d="M 60.484252,20.019685 62.610236,18 l 11.019685,0 1.877953,2.019685 -2.125985,1.984252 -11.019685,0 z"
         style="fill:#00ff00;fill-opacity:1;fill-rule:evenodd;stroke:none"
         inkscape:connector-curvature="0" />
      <path
         id="path3038"
         d="M 77.846456,22.5 75.968503,20.515748 73.842519,22.5 l -0.744094,12.011811 1.877953,1.984252 2.125984,-1.984252 z"
         style="fill:#00ff00;fill-opacity:1;fill-rule:evenodd;stroke:none"
         inkscape:connector-curvature="0" />
      <path
         id="path3040"
         d="m 62.8937,5.492126 -1.877952,-1.984252 -2.125985,1.984252 -0.744094,12.011811 1.877953,1.984252 2.125984,-1.984252 z"
         style="fill:#00ff00;fill-opacity:1;fill-rule:evenodd;stroke:none"
         inkscape:connector-curvature="0" />
      <path
         id="path3042"
         d="m 63.212598,8.503937 0.177165,-3.011811 3.011811,0 7.440945,9 -0.177165,3.011811 -3.011811,0 z"
         style="fill:#00ff00;fill-opacity:1;fill-rule:evenodd;stroke:none"
         inkscape:connector-curvature="0" />
      <path
         id="path3044"
         d="M 61.830708,22.5 59.952756,20.515748 57.826771,22.5 l -0.744094,12.011811 1.877953,1.984252 2.125984,-1.984252 z"
         style="fill:#00ff00;fill-opacity:1;fill-rule:evenodd;stroke:none"
         inkscape:connector-curvature="0" />
    </g>
  </g>
</svg>
