<?xml version="1.0" encoding="UTF-8" standalone="no"?>
<!-- Created with Inkscape (http://www.inkscape.org/) -->

<svg
   xmlns:dc="http://purl.org/dc/elements/1.1/"
   xmlns:cc="http://creativecommons.org/ns#"
   xmlns:rdf="http://www.w3.org/1999/02/22-rdf-syntax-ns#"
   xmlns:svg="http://www.w3.org/2000/svg"
   xmlns="http://www.w3.org/2000/svg"
   xmlns:sodipodi="http://sodipodi.sourceforge.net/DTD/sodipodi-0.dtd"
   xmlns:inkscape="http://www.inkscape.org/namespaces/inkscape"
   width="24"
   height="40"
   id="svg12303"
   version="1.1"
   inkscape:version="0.48.4 r9939"
   sodipodi:docname="pre_nine.svg">
  <defs
     id="defs12305" />
  <sodipodi:namedview
     id="base"
     pagecolor="#ffffff"
     bordercolor="#666666"
     borderopacity="1.0"
     inkscape:pageopacity="0.0"
     inkscape:pageshadow="2"
     inkscape:zoom="11.2"
     inkscape:cx="15.146434"
     inkscape:cy="17.812167"
     inkscape:document-units="px"
     inkscape:current-layer="g3917"
     showgrid="true"
     inkscape:object-nodes="false"
     inkscape:window-width="810"
     inkscape:window-height="794"
     inkscape:window-x="753"
     inkscape:window-y="9"
     inkscape:window-maximized="0"
     inkscape:snap-center="true">
    <inkscape:grid
       type="xygrid"
       id="grid12311"
       units="px"
       empspacing="4"
       visible="true"
       enabled="true"
       snapvisiblegridlinesonly="true"
       spacingx="2px"
       spacingy="2px" />
  </sodipodi:namedview>
  <metadata
     id="metadata12308">
    <rdf:RDF>
      <cc:Work
         rdf:about="">
        <dc:format>image/svg+xml</dc:format>
        <dc:type
           rdf:resource="http://purl.org/dc/dcmitype/StillImage" />
        <dc:title />
      </cc:Work>
    </rdf:RDF>
  </metadata>
  <g
     inkscape:label="Layer 1"
     inkscape:groupmode="layer"
     id="layer1"
     transform="translate(0,-1012.3622)">
    <rect
       style="fill:#000000;fill-opacity:1;fill-rule:evenodd;stroke:none"
       id="rect5592-7-0-18-2-3-1-5-2-8-7-4-5-3"
       width="24"
       height="40"
       x="0"
       y="1012.3622" />
    <path
       transform="matrix(0.5,0,0,0.5,-127.99999,1072.3622)"
       sodipodi:type="arc"
       style="fill:#003000;fill-opacity:1;fill-rule:evenodd;stroke:none"
       id="path6598-4-6-1-0-3-7-8-3"
       sodipodi:cx="299"
       sodipodi:cy="-45"
       sodipodi:rx="3"
       sodipodi:ry="3"
       d="m 302,-45 c 0,1.656854 -1.34315,3 -3,3 -1.65685,0 -3,-1.343146 -3,-3 0,-1.656854 1.34315,-3 3,-3 1.65685,0 3,1.343146 3,3 z" />
    <g
       id="g3917"
       transform="translate(1.0866145,1013.3346)">
      <path
         id="path3919"
         d="m 2.3385826,36.035432 2.1259842,-2.019685 11.0196842,0 1.84252,2.019685 -2.090551,1.984252 -11.0196847,0 z"
         style="fill:#003000;fill-opacity:1;fill-rule:evenodd;stroke:none"
         inkscape:connector-curvature="0" />
      <path
         id="path3921"
         d="m 3.4015747,19.027558 2.1259841,-2.019685 10.9842512,0 1.877953,2.019685 -2.125984,1.984252 -10.9842517,0 z"
         style="fill:#00ff00;fill-opacity:1;fill-rule:evenodd;stroke:none"
         inkscape:connector-curvature="0" />
      <path
         id="path3923"
         d="m 20.763779,21.507873 -1.877953,-1.984252 -2.125984,1.984252 -0.744095,12.011811 1.84252,1.984252 2.125984,-1.984252 z"
         style="fill:#00ff00;fill-opacity:1;fill-rule:evenodd;stroke:none"
         inkscape:connector-curvature="0" />
      <path
         id="path3925"
         d="m 4.4645668,2.019685 2.1259841,-1.98425193 10.9842511,0 1.877953,1.98425193 -2.125984,1.9842519 -10.9842516,0 z"
         style="fill:#00ff00;fill-opacity:1;fill-rule:evenodd;stroke:none"
         inkscape:connector-curvature="0" />
      <path
         id="path3927"
         d="M 5.8110234,4.5354329 3.9330707,2.515748 1.8070865,4.5354329 1.0629921,16.511811 2.9409448,18.531495 5.0669289,16.511811 z"
         style="fill:#00ff00;fill-opacity:1;fill-rule:evenodd;stroke:none"
         inkscape:connector-curvature="0" />
      <path
         id="path3929"
         d="M 21.826771,4.5354329 19.948818,2.515748 17.822834,4.5354329 17.043306,16.511811 l 1.877953,2.019684 2.125984,-2.019684 z"
         style="fill:#00ff00;fill-opacity:1;fill-rule:evenodd;stroke:none"
         inkscape:connector-curvature="0" />
      <path
         id="path3931"
         d="M 4.7480313,21.507873 2.8700786,19.523621 0.74409446,21.507873 0,33.519684 1.8779527,35.503936 4.0039368,33.519684 z"
         style="fill:#003000;fill-opacity:1;fill-rule:evenodd;stroke:none"
         inkscape:connector-curvature="0" />
    </g>
  </g>
</svg>
