<?xml version="1.0" encoding="UTF-8" standalone="no"?>
<!-- Created with Inkscape (http://www.inkscape.org/) -->

<svg
   xmlns:dc="http://purl.org/dc/elements/1.1/"
   xmlns:cc="http://creativecommons.org/ns#"
   xmlns:rdf="http://www.w3.org/1999/02/22-rdf-syntax-ns#"
   xmlns:svg="http://www.w3.org/2000/svg"
   xmlns="http://www.w3.org/2000/svg"
   xmlns:sodipodi="http://sodipodi.sourceforge.net/DTD/sodipodi-0.dtd"
   xmlns:inkscape="http://www.inkscape.org/namespaces/inkscape"
   width="80"
   height="40"
   id="svg12303"
   version="1.1"
   inkscape:version="0.48.4 r9939"
   sodipodi:docname="des_jan.svg">
  <defs
     id="defs12305" />
  <sodipodi:namedview
     id="base"
     pagecolor="#ffffff"
     bordercolor="#666666"
     borderopacity="1.0"
     inkscape:pageopacity="0.0"
     inkscape:pageshadow="2"
     inkscape:zoom="5.6"
     inkscape:cx="50.492054"
     inkscape:cy="14.321975"
     inkscape:document-units="px"
     inkscape:current-layer="layer1"
     showgrid="true"
     inkscape:object-nodes="true"
     inkscape:window-width="707"
     inkscape:window-height="794"
     inkscape:window-x="856"
     inkscape:window-y="9"
     inkscape:window-maximized="0">
    <inkscape:grid
       type="xygrid"
       id="grid12311"
       units="px"
       empspacing="4"
       visible="true"
       enabled="true"
       snapvisiblegridlinesonly="true"
       spacingx="2px"
       spacingy="2px" />
  </sodipodi:namedview>
  <metadata
     id="metadata12308">
    <rdf:RDF>
      <cc:Work
         rdf:about="">
        <dc:format>image/svg+xml</dc:format>
        <dc:type
           rdf:resource="http://purl.org/dc/dcmitype/StillImage" />
        <dc:title></dc:title>
      </cc:Work>
    </rdf:RDF>
  </metadata>
  <g
     inkscape:label="Layer 1"
     inkscape:groupmode="layer"
     id="layer1"
     transform="translate(0,-1012.3622)">
    <rect
       style="fill:#000000;fill-opacity:1;fill-rule:evenodd;stroke:none"
       id="rect5592-7-0-18-2-3-1-5-2-8-7-4-6-9-7-2-8"
       width="24"
       height="40"
       x="6.5565109e-007"
       y="1012.3622" />
    <g
       id="g8603-2-2-6-8-3-3-5"
       transform="matrix(0.5,0,-0.03119743,0.5,-177.03707,976.86222)">
      <path
         sodipodi:nodetypes="ccccccc"
         inkscape:connector-curvature="0"
         id="path7952-7-1-2-7-1-0-5-8-8"
         d="m 370,145 4,-4 22,0 4,4 -4,4 -22,0 z"
         style="fill:#ff0000;fill-opacity:1;fill-rule:evenodd;stroke:none" />
      <path
         sodipodi:nodetypes="ccccccc"
         inkscape:connector-curvature="0"
         id="path8008-3-2-4-9-6-46-4-5-6-9"
         d="m 405,116 -4,-4 -4,4 0,24 4,4 4,-4 z"
         style="fill:#ff0000;fill-opacity:1;fill-rule:evenodd;stroke:none" />
      <path
         sodipodi:nodetypes="ccccccc"
         inkscape:connector-curvature="0"
         id="path8008-3-6-3-3-8-7-8-5-0-5-6"
         d="m 405,82 -4,-4 -4,4 0,24 4,4 4,-4 z"
         style="fill:#ff0000;fill-opacity:1;fill-rule:evenodd;stroke:none" />
      <path
         sodipodi:nodetypes="ccccccc"
         inkscape:connector-curvature="0"
         id="path8008-3-4-2-5-0-4-0-4-0-8-6"
         d="m 373,116 -4,-4 -4,4 0,24 4,4 4,-4 z"
         style="fill:#ff0000;fill-opacity:1;fill-rule:evenodd;stroke:none" />
    </g>
    <rect
       style="fill:#000000;fill-opacity:1;fill-rule:evenodd;stroke:none"
       id="rect5592-7-0-18-2-3-1-5-2-8-7-4-6-1-4-9-2-7"
       width="24"
       height="40"
       x="28"
       y="1012.3622" />
    <g
       id="g8603-2-2-6-7-4-7-0-2"
       transform="matrix(0.5,0,-0.03119743,0.5,-149.03707,976.86222)">
      <path
         sodipodi:nodetypes="ccccccc"
         inkscape:connector-curvature="0"
         id="path7952-0-9-7-5-9-4-0-5-9-9-2"
         d="m 370,111 4,-4 22,0 4,4 -4,4 -22,0 z"
         style="fill:#ff0000;fill-opacity:1;fill-rule:evenodd;stroke:none" />
      <path
         sodipodi:nodetypes="ccccccc"
         inkscape:connector-curvature="0"
         id="path8008-3-2-4-9-6-46-0-1-4-2-6"
         d="m 405,116 -4,-4 -4,4 0,24 4,4 4,-4 z"
         style="fill:#ff0000;fill-opacity:1;fill-rule:evenodd;stroke:none" />
      <path
         sodipodi:nodetypes="ccccccc"
         inkscape:connector-curvature="0"
         id="path7952-0-5-3-8-1-1-2-2-15-1-8-4"
         d="m 370,77 4,-4 22,0 4,4 -4,4 -22,0 z"
         style="fill:#ff0000;fill-opacity:1;fill-rule:evenodd;stroke:none" />
      <path
         sodipodi:nodetypes="ccccccc"
         inkscape:connector-curvature="0"
         id="path8008-6-7-2-0-7-6-4-9-5-2-7"
         d="m 373,82 -4,-4 -4,4 0,24 4,4 4,-4 z"
         style="fill:#ff0000;fill-opacity:1;fill-rule:evenodd;stroke:none" />
      <path
         sodipodi:nodetypes="ccccccc"
         inkscape:connector-curvature="0"
         id="path8008-3-6-3-3-8-7-8-3-0-6-0-1"
         d="m 405,82 -4,-4 -4,4 0,24 4,4 4,-4 z"
         style="fill:#ff0000;fill-opacity:1;fill-rule:evenodd;stroke:none" />
      <path
         sodipodi:nodetypes="ccccccc"
         inkscape:connector-curvature="0"
         id="path8008-3-4-2-5-0-4-0-2-2-7-6-3"
         d="m 373,116 -4,-4 -4,4 0,24 4,4 4,-4 z"
         style="fill:#ff0000;fill-opacity:1;fill-rule:evenodd;stroke:none" />
    </g>
    <rect
       style="fill:#000000;fill-opacity:1;fill-rule:evenodd;stroke:none"
       id="rect5592-7-0-18-2-3-1-5-2-8-7-4-6-4-93-4-8-3"
       width="24"
       height="40"
       x="56"
       y="1012.3622" />
    <g
       id="g8603-2-2-6-3-8-0-7-2"
       transform="matrix(0.5,0,-0.03119743,0.5,-121.03707,976.86222)">
      <path
         sodipodi:nodetypes="ccccccc"
         inkscape:connector-curvature="0"
         id="path8008-3-2-4-9-6-46-6-3-2-6-0"
         d="m 405,116 -4,-4 -4,4 0,24 4,4 4,-4 z"
         style="fill:#ff0000;fill-opacity:1;fill-rule:evenodd;stroke:none" />
      <path
         sodipodi:nodetypes="ccccccc"
         inkscape:connector-curvature="0"
         id="path8008-6-7-2-0-7-6-47-8-4-9-2"
         d="m 373,82 -4,-4 -4,4 0,24 4,4 4,-4 z"
         style="fill:#ff0000;fill-opacity:1;fill-rule:evenodd;stroke:none" />
      <path
         sodipodi:nodetypes="ccccccc"
         inkscape:connector-curvature="0"
         id="path8008-3-6-3-3-8-7-8-39-4-9-5-6"
         d="m 405,82 -4,-4 -4,4 0,24 4,4 4,-4 z"
         style="fill:#ff0000;fill-opacity:1;fill-rule:evenodd;stroke:none" />
      <path
         sodipodi:nodetypes="ccccccc"
         inkscape:connector-curvature="0"
         id="path8176-57-6-5-1-2-8-8-5-8-0"
         d="m 374,88 0,-6 6,0 16,18 0,6 -6,0 z"
         style="fill:#ff1010;fill-opacity:1;fill-rule:evenodd;stroke:none" />
      <path
         sodipodi:nodetypes="ccccccc"
         inkscape:connector-curvature="0"
         id="path8008-3-4-2-5-0-4-0-0-1-1-0-7"
         d="m 373,116 -4,-4 -4,4 0,24 4,4 4,-4 z"
         style="fill:#ff0000;fill-opacity:1;fill-rule:evenodd;stroke:none" />
    </g>
  </g>
</svg>
