<?xml version="1.0" encoding="UTF-8" standalone="no"?>
<!-- Created with Inkscape (http://www.inkscape.org/) -->

<svg
   xmlns:dc="http://purl.org/dc/elements/1.1/"
   xmlns:cc="http://creativecommons.org/ns#"
   xmlns:rdf="http://www.w3.org/1999/02/22-rdf-syntax-ns#"
   xmlns:svg="http://www.w3.org/2000/svg"
   xmlns="http://www.w3.org/2000/svg"
   xmlns:sodipodi="http://sodipodi.sourceforge.net/DTD/sodipodi-0.dtd"
   xmlns:inkscape="http://www.inkscape.org/namespaces/inkscape"
   width="80"
   height="40"
   id="svg12303"
   version="1.1"
   inkscape:version="0.48.4 r9939"
   sodipodi:docname="pre_mnov.svg">
  <defs
     id="defs12305" />
  <sodipodi:namedview
     id="base"
     pagecolor="#ffffff"
     bordercolor="#666666"
     borderopacity="1.0"
     inkscape:pageopacity="0.0"
     inkscape:pageshadow="2"
     inkscape:zoom="5.6"
     inkscape:cx="38.349197"
     inkscape:cy="16.10769"
     inkscape:document-units="px"
     inkscape:current-layer="layer1"
     showgrid="true"
     inkscape:object-nodes="true"
     inkscape:window-width="908"
     inkscape:window-height="794"
     inkscape:window-x="655"
     inkscape:window-y="9"
     inkscape:window-maximized="0">
    <inkscape:grid
       type="xygrid"
       id="grid12311"
       units="px"
       empspacing="4"
       visible="true"
       enabled="true"
       snapvisiblegridlinesonly="true"
       spacingx="2px"
       spacingy="2px" />
  </sodipodi:namedview>
  <metadata
     id="metadata12308">
    <rdf:RDF>
      <cc:Work
         rdf:about="">
        <dc:format>image/svg+xml</dc:format>
        <dc:type
           rdf:resource="http://purl.org/dc/dcmitype/StillImage" />
        <dc:title />
      </cc:Work>
    </rdf:RDF>
  </metadata>
  <g
     inkscape:label="Layer 1"
     inkscape:groupmode="layer"
     id="layer1"
     transform="translate(0,-1012.3622)">
    <rect
       style="fill:#000000;fill-opacity:1;fill-rule:evenodd;stroke:none"
       id="rect5592-7-0-18-2-3-1-5-2-8-7-4-6-14"
       width="24"
       height="40"
       x="0"
       y="1012.3622" />
    <g
       id="g8603-2-2-6-36"
       transform="matrix(0.5,0,-0.03119743,0.5,-177.03707,976.86224)"
       style="fill:#00ff00;fill-opacity:1">
      <path
         sodipodi:nodetypes="ccccccc"
         inkscape:connector-curvature="0"
         id="path8008-3-2-4-9-6-46-2"
         d="m 405,116 -4,-4 -4,4 0,24 4,4 4,-4 z"
         style="fill:#00ff00;fill-opacity:1;fill-rule:evenodd;stroke:none" />
      <path
         sodipodi:nodetypes="ccccccc"
         inkscape:connector-curvature="0"
         id="path8008-6-7-2-0-7-6-9"
         d="m 373,82 -4,-4 -4,4 0,24 4,4 4,-4 z"
         style="fill:#00ff00;fill-opacity:1;fill-rule:evenodd;stroke:none" />
      <path
         sodipodi:nodetypes="ccccccc"
         inkscape:connector-curvature="0"
         id="path8008-3-6-3-3-8-7-8-8"
         d="m 405,82 -4,-4 -4,4 0,24 4,4 4,-4 z"
         style="fill:#00ff00;fill-opacity:1;fill-rule:evenodd;stroke:none" />
      <path
         sodipodi:nodetypes="ccccccc"
         inkscape:connector-curvature="0"
         id="path8176-57-6-5-1-2-2"
         d="m 374,88 0,-6 6,0 16,18 0,6 -6,0 z"
         style="fill:#00ff00;fill-opacity:1;fill-rule:evenodd;stroke:none" />
      <path
         sodipodi:nodetypes="ccccccc"
         inkscape:connector-curvature="0"
         id="path8008-3-4-2-5-0-4-0-23"
         d="m 373,116 -4,-4 -4,4 0,24 4,4 4,-4 z"
         style="fill:#00ff00;fill-opacity:1;fill-rule:evenodd;stroke:none" />
    </g>
    <rect
       style="fill:#000000;fill-opacity:1;fill-rule:evenodd;stroke:none"
       id="rect5592-7-0-18-2-3-1-5-2-8-7-4-6-1-9"
       width="24"
       height="40"
       x="28"
       y="1012.3622" />
    <g
       id="g8603-2-2-6-7-8"
       transform="matrix(0.5,0,-0.03119743,0.5,-149.03707,976.86224)"
       style="fill:#00ff00;fill-opacity:1">
      <path
         sodipodi:nodetypes="ccccccc"
         inkscape:connector-curvature="0"
         id="path7952-7-1-2-7-1-6-9"
         d="m 370,145 4,-4 22,0 4,4 -4,4 -22,0 z"
         style="fill:#00ff00;fill-opacity:1;fill-rule:evenodd;stroke:none" />
      <path
         sodipodi:nodetypes="ccccccc"
         inkscape:connector-curvature="0"
         id="path8008-3-2-4-9-6-46-0-9"
         d="m 405,116 -4,-4 -4,4 0,24 4,4 4,-4 z"
         style="fill:#00ff00;fill-opacity:1;fill-rule:evenodd;stroke:none" />
      <path
         sodipodi:nodetypes="ccccccc"
         inkscape:connector-curvature="0"
         id="path7952-0-5-3-8-1-1-2-2-1"
         d="m 370,77 4,-4 22,0 4,4 -4,4 -22,0 z"
         style="fill:#00ff00;fill-opacity:1;fill-rule:evenodd;stroke:none" />
      <path
         sodipodi:nodetypes="ccccccc"
         inkscape:connector-curvature="0"
         id="path8008-6-7-2-0-7-6-4-3"
         d="m 373,82 -4,-4 -4,4 0,24 4,4 4,-4 z"
         style="fill:#00ff00;fill-opacity:1;fill-rule:evenodd;stroke:none" />
      <path
         sodipodi:nodetypes="ccccccc"
         inkscape:connector-curvature="0"
         id="path8008-3-6-3-3-8-7-8-3-5"
         d="m 405,82 -4,-4 -4,4 0,24 4,4 4,-4 z"
         style="fill:#00ff00;fill-opacity:1;fill-rule:evenodd;stroke:none" />
      <path
         sodipodi:nodetypes="ccccccc"
         inkscape:connector-curvature="0"
         id="path8008-3-4-2-5-0-4-0-2-3"
         d="m 373,116 -4,-4 -4,4 0,24 4,4 4,-4 z"
         style="fill:#00ff00;fill-opacity:1;fill-rule:evenodd;stroke:none" />
    </g>
    <rect
       style="fill:#000000;fill-opacity:1;fill-rule:evenodd;stroke:none"
       id="rect5592-7-0-18-2-3-1-5-2-8-7-4-6-4-9"
       width="24"
       height="40"
       x="56"
       y="1012.3622" />
    <g
       id="g8603-2-2-6-3-2"
       transform="matrix(0.5,0,-0.03119743,0.5,-121.03707,976.86224)"
       style="fill:#00ff00;fill-opacity:1">
      <path
         sodipodi:nodetypes="ccccccc"
         inkscape:connector-curvature="0"
         id="path8008-6-7-2-0-7-6-47-4"
         d="m 373,82 -4,-4 -4,4 0,24 4,4 4,-4 z"
         style="fill:#00ff00;fill-opacity:1;fill-rule:evenodd;stroke:none" />
      <path
         sodipodi:nodetypes="ccccccc"
         inkscape:connector-curvature="0"
         id="path8008-3-6-3-3-8-7-8-39-8"
         d="m 405,82 -4,-4 -4,4 0,24 4,4 4,-4 z"
         style="fill:#00ff00;fill-opacity:1;fill-rule:evenodd;stroke:none" />
      <path
         sodipodi:nodetypes="ccccccc"
         inkscape:connector-curvature="0"
         id="path8176-5-8-3-0-9-5-0-9"
         d="m 374,134 0,6 6,0 16,-18 0,-6 -6,0 z"
         style="fill:#00ff00;fill-opacity:1;fill-rule:evenodd;stroke:none" />
      <path
         sodipodi:nodetypes="ccccccc"
         inkscape:connector-curvature="0"
         id="path8008-3-4-2-5-0-4-0-0-9"
         d="m 373,116 -4,-4 -4,4 0,24 4,4 4,-4 z"
         style="fill:#00ff00;fill-opacity:1;fill-rule:evenodd;stroke:none" />
    </g>
  </g>
</svg>
